<?xml version="1.0" encoding="UTF-8"?>
<svg xmlns="http://www.w3.org/2000/svg" xmlns:xlink="http://www.w3.org/1999/xlink" width="24px" height="24px" viewBox="0 0 24 24" version="1.1">
<g id="surface1">
<path style=" stroke:none;fill-rule:nonzero;fill:rgb(0%,0%,0%);fill-opacity:1;" d="M 12 1.332031 C 6.109375 1.332031 1.332031 6.109375 1.332031 12 C 1.332031 17.890625 6.109375 22.667969 12 22.667969 C 17.890625 22.667969 22.667969 17.890625 22.667969 12 C 22.667969 6.109375 17.890625 1.332031 12 1.332031 Z M 12 21.332031 C 6.84375 21.332031 2.667969 17.15625 2.667969 12 C 2.667969 6.84375 6.84375 2.667969 12 2.667969 C 17.15625 2.667969 21.332031 6.84375 21.332031 12 C 21.332031 17.15625 17.15625 21.332031 12 21.332031 Z M 12 21.332031 "/>
<path style=" stroke:none;fill-rule:nonzero;fill:rgb(0%,0%,0%);fill-opacity:1;" d="M 18.667969 8.066406 C 18.40625 7.808594 17.988281 7.808594 17.726562 8.066406 L 10.328125 15.433594 L 6.328125 11.433594 C 6.074219 11.160156 5.644531 11.144531 5.371094 11.398438 C 5.09375 11.652344 5.078125 12.078125 5.332031 12.351562 L 10.328125 17.332031 L 18.667969 9.011719 C 18.792969 8.886719 18.863281 8.71875 18.863281 8.539062 C 18.863281 8.363281 18.792969 8.191406 18.667969 8.066406 Z M 18.667969 8.066406 "/>
</g>
</svg>
