<?xml version="1.0" encoding="UTF-8"?>
<svg xmlns="http://www.w3.org/2000/svg" xmlns:xlink="http://www.w3.org/1999/xlink" width="24px" height="24px" viewBox="0 0 24 24" version="1.1">
<g id="surface1">
<path style="fill:none;stroke-width:2;stroke-linecap:round;stroke-linejoin:round;stroke:rgb(0%,0%,0%);stroke-opacity:1;stroke-miterlimit:4;" d="M 6 20 L 14.867188 11.132812 C 15.265625 10.734375 15.460938 10.539062 15.691406 10.464844 C 15.890625 10.398438 16.109375 10.398438 16.308594 10.464844 C 16.539062 10.539062 16.734375 10.734375 17.132812 11.132812 L 21.40625 15.40625 M 10.5 8.5 C 10.5 9.605469 9.605469 10.5 8.5 10.5 C 7.394531 10.5 6.5 9.605469 6.5 8.5 C 6.5 7.394531 7.394531 6.5 8.5 6.5 C 9.605469 6.5 10.5 7.394531 10.5 8.5 Z M 22 12 C 22 17.523438 17.523438 22 12 22 C 6.476562 22 2 17.523438 2 12 C 2 6.476562 6.476562 2 12 2 C 17.523438 2 22 6.476562 22 12 Z M 22 12 "/>
</g>
</svg>
