<?xml version="1.0" encoding="UTF-8"?>
<svg xmlns="http://www.w3.org/2000/svg" xmlns:xlink="http://www.w3.org/1999/xlink" width="24px" height="24px" viewBox="0 0 24 24" version="1.1">
<g id="surface1">
<path style=" stroke:none;fill-rule:nonzero;fill:rgb(29.803923%,75.686276%,100%);fill-opacity:1;" d="M 12 2.25 C 6.625 2.25 2.25 6.625 2.25 12 C 2.25 17.375 6.625 21.75 12 21.75 C 17.375 21.75 21.75 17.375 21.75 12 C 21.75 6.625 17.375 2.25 12 2.25 Z M 12 3.75 C 16.566406 3.75 20.25 7.433594 20.25 12 C 20.25 16.566406 16.566406 20.25 12 20.25 C 7.433594 20.25 3.75 16.566406 3.75 12 C 3.75 7.433594 7.433594 3.75 12 3.75 Z M 11.25 7.5 L 11.25 9 L 12.75 9 L 12.75 7.5 Z M 11.25 10.5 L 11.25 16.5 L 12.75 16.5 L 12.75 10.5 Z M 11.25 10.5 "/>
</g>
</svg>
